<?xml version="1.0" encoding="UTF-8"?>
<svg width="24px" height="24px" viewBox="0 0 24 24" version="1.1" xmlns="http://www.w3.org/2000/svg">
    <title>img/icons/app</title>
    <g id="img/icons/app" stroke="none" stroke-width="1" fill="none" fill-rule="evenodd">
        <g id="Logo" transform="translate(3.25, 2)">
            <path d="M8.57142857,2.85714286 C9.55555556,2.85714286 10.5,3.01587302 11.4047619,3.33333333 C12.3095238,3.65079365 13.1587302,4.11111111 13.952381,4.71428571 L15.2857143,3.38095238 L16.6190476,4.71428571 L15.2857143,6.04761905 C15.8888889,6.84126984 16.3492063,7.69047619 16.6666667,8.5952381 C16.9376853,9.36764129 17.0930185,10.1689659 17.1326661,10.9992118 L15.2260093,10.998976 C15.1316593,9.3416958 14.4848943,7.9134657 13.2857143,6.71428571 C11.984127,5.41269841 10.4126984,4.76190476 8.57142857,4.76190476 C6.73015873,4.76190476 5.15873016,5.41269841 3.85714286,6.71428571 C2.55555556,8.01587302 1.9047619,9.58730159 1.9047619,11.4285714 C1.9047619,13.2698413 2.55555556,14.8412698 3.85714286,16.1428571 C4.14187469,16.427589 4.43951972,16.6811772 4.75007794,16.9036219 L4.7490745,19.0857456 C3.91579507,18.6629394 3.17404008,18.126421 2.52380952,17.4761905 C1.74603175,16.6984127 1.13095238,15.7896825 0.678571429,14.75 C0.226190476,13.7103175 0,12.6031746 0,11.4285714 C0,10.2539683 0.226190476,9.1468254 0.678571429,8.10714286 C1.13095238,7.06746032 1.74603175,6.15873016 2.52380952,5.38095238 C3.3015873,4.6031746 4.21031746,3.98809524 5.25,3.53571429 C6.28968254,3.08333333 7.3968254,2.85714286 8.57142857,2.85714286 Z M9.52380952,6.66666667 L9.52380952,12.3809524 L7.61904762,12.3809524 L7.61904762,6.66666667 L9.52380952,6.66666667 Z M11.4285714,0 L11.4285714,1.9047619 L5.71428571,1.9047619 L5.71428571,0 L11.4285714,0 Z" id="Combined-Shape" fill="#000000" fill-rule="nonzero"></path>
            <g id="Group" transform="translate(4.75, 11)"></g>
            <path d="M6.25,20 L6.25,14.5 L9,14.5 L9,20 L6.25,20 Z M10.375,20 L10.375,9 L13.125,9 L13.125,20 L10.375,20 Z M14.5,20 L14.5,12.4375 L17.25,12.4375 L17.25,20 L14.5,20 Z" id="Shape" fill="#000000" fill-rule="nonzero"></path>
        </g>
    </g>
</svg>